<svg xmlns="http://www.w3.org/2000/svg" width="230" height="52" viewBox="0 0 230 52">
  <g id="Layer_2" data-name="Layer 2" transform="translate(0 -0.01)">
    <g id="Layer_1" data-name="Layer 1" transform="translate(0 0.01)">
      <path id="Path_535" data-name="Path 535" d="M0,7.463c1.193-.093,2.374-.193,3.555-.273l19.039-1.3c5.377-.354,10.7-.69,16.043-1.044,6.017-.4,12.028-.839,18.026-1.243L72.725,2.558c6.011-.4,12.021-.833,18.026-1.243q6.962-.46,13.917-.9C107,.271,109.33.141,111.655.01h.827c.062.97.124,1.9.186,2.9-1.467.112-2.859.224-4.258.317Q99.963,3.8,91.516,4.355c-5.352.354-10.7.69-16.049,1.05-6.011.4-12.021.833-18.026,1.243-4.631.311-9.268.622-13.9.908-5.3.354-10.567.733-15.9,1.088-4.606.311-9.218.622-13.83.908-3.475.23-6.943.479-10.412.7-.4,0-.559.174-.528.566V38.007H0Z" transform="translate(0 -0.01)" fill="#ec1c39"/>
      <path id="Path_536" data-name="Path 536" d="M301.608,62.159v-28.1c0-.957,0-.963.982-.963h1.79a.889.889,0,0,1,.236.075V65.1H194.77v-2.94Z" transform="translate(-74.616 -13.099)" fill="#ec1c39"/>
      <path id="Path_537" data-name="Path 537" d="M35.89,40.375V31.8c0-.622.18-.876.845-.858,1.716.056,3.431,0,5.147.062a4.309,4.309,0,0,1,4.488,4.724V44.95c0,2.816-1.5,4.544-4.351,4.768-1.865.149-3.73.068-5.644.106-.572,0-.5-.379-.5-.727Q35.884,44.732,35.89,40.375Zm3.642,6.272h1.28a1.622,1.622,0,0,0,1.865-1.778V35.738a1.423,1.423,0,0,0-1.05-1.529,12.755,12.755,0,0,0-2.095-.124Z" transform="translate(-13.576 -12.038)" fill="#ec1c39"/>
      <path id="Path_538" data-name="Path 538" d="M66.747,49.815H63.639c-.541,0-.46-.367-.46-.69V42.014H59.817v7.751H56.274c0-.255-.044-.5-.044-.758V31.783c0-.665.186-.9.839-.839a11.6,11.6,0,0,0,1.865,0c.7-.062.957.137.932.9-.056,1.952,0,3.91,0,5.862v.839h3.307a5.04,5.04,0,0,1,.037-.746V31.646c0-.528.149-.721.69-.7.951.037,1.9,0,2.9,0Z" transform="translate(-21.278 -12.035)" fill="#ec1c39"/>
      <path id="Path_539" data-name="Path 539" d="M151.193,40.218v4.506c.062,3.574-2.437,5.37-5.787,5.234a7.883,7.883,0,0,1-1.479-.23,4.283,4.283,0,0,1-3.45-4.264q-.075-5.109,0-10.225a4.5,4.5,0,0,1,4.214-4.594,9.945,9.945,0,0,1,3.45.292,4.183,4.183,0,0,1,3.033,3.991v5.29Zm-7.061-.044v4.718a1.65,1.65,0,0,0,1.7,1.865,1.629,1.629,0,0,0,1.7-1.8q.043-4.749,0-9.5a1.616,1.616,0,0,0-1.74-1.747c-1.05,0-1.647.622-1.66,1.809C144.12,37.066,144.132,38.614,144.132,40.174Z" transform="translate(-53.506 -11.912)" fill="#ec1c39"/>
      <path id="Path_540" data-name="Path 540" d="M25.511,49.78H22.186c-.131,0-.323-.3-.361-.491q-.326-1.576-.572-3.158c-.068-.429-.218-.622-.684-.622-.932.031-1.865,0-2.791,0-.367,0-.547.087-.622.5-.155,1.057-.385,2.107-.547,3.164-.075.454-.255.622-.74.622-.852-.037-1.709,0-2.66,0,.037-.317.044-.566.093-.808,1.162-5.781,2.337-11.555,3.481-17.342.106-.559.267-.808.9-.783,1.212.056,2.43.037,3.642,0,.435,0,.622.106.727.559,1.119,5.886,2.263,11.767,3.394,17.647A2.27,2.27,0,0,1,25.511,49.78ZM19.326,35.247h-.211l-1.243,7.285h2.667Z" transform="translate(-4.999 -12.007)" fill="#ec1c39"/>
      <path id="Path_541" data-name="Path 541" d="M77.08,31h8.851v3.015H81.145c-.429,0-.622.162-.584.622v3.357c0,.46.155.622.622.622h3.587v3.108H80.654v4.973h5.283V49.8H77.08Z" transform="translate(-29.365 -12.061)" fill="#ec1c39"/>
      <path id="Path_542" data-name="Path 542" d="M131.757,31c-1.2,6.353-2.381,12.581-3.568,18.853H124.31c-1.2-6.216-2.4-12.432-3.63-18.84h3.35c.124,0,.3.373.342.591l1.865,11.039a.528.528,0,0,0,.261.379c.162-.963.336-1.927.5-2.89.485-2.884.951-5.775,1.448-8.652,0-.186.236-.472.373-.479Z" transform="translate(-45.979 -12.061)" fill="#ec1c39"/>
      <path id="Path_543" data-name="Path 543" d="M170.314,35.726h-3.071c-.081-.348-.149-.715-.249-1.075-.292-1.026-.995-1.5-1.815-1.243a1.554,1.554,0,0,0-.858,2.126A5.9,5.9,0,0,0,165.41,37.1c.945,1.007,1.964,1.946,2.928,2.934a7.459,7.459,0,0,1,2.256,4.351,4.861,4.861,0,0,1-5.371,5.5c-2.865-.3-4.625-2.287-4.643-5.364h3.307c.093.361.18.827.329,1.243a1.448,1.448,0,0,0,1.616,1.106c.69-.093,1.057-.541,1.187-1.4a2.7,2.7,0,0,0-.845-2.325c-.97-1.019-1.977-2-2.971-3a7.093,7.093,0,0,1-2.287-3.941c-.286-1.939.087-3.73,1.765-4.892a5.091,5.091,0,0,1,5.42-.354A4.934,4.934,0,0,1,170.314,35.726Z" transform="translate(-61.178 -11.814)" fill="#ec1c39"/>
      <path id="Path_544" data-name="Path 544" d="M93.26,44.492H96.7c.081.348.155.758.28,1.162A1.473,1.473,0,0,0,98.643,46.9c.733-.093,1.169-.665,1.243-1.6a3.064,3.064,0,0,0-1.075-2.331c-.976-1.007-2-1.983-2.978-2.99a7.012,7.012,0,0,1-2.144-4.015A4.73,4.73,0,0,1,99.1,30.463a4.494,4.494,0,0,1,4,5.259H100.06c-.093-.361-.174-.771-.3-1.175A1.413,1.413,0,0,0,98,33.409a1.5,1.5,0,0,0-.92,1.97,5.464,5.464,0,0,0,1.069,1.66c.951,1.032,2,1.977,2.977,2.99a6.9,6.9,0,0,1,2.287,5.128A4.7,4.7,0,0,1,99.532,49.8c-2.778.448-4.9-.665-5.743-3.058A21.809,21.809,0,0,1,93.26,44.492Z" transform="translate(-35.531 -11.835)" fill="#ec1c39"/>
      <path id="Path_545" data-name="Path 545" d="M285.078,39.568v6.359a4.435,4.435,0,0,1-3.17,4.569,6.278,6.278,0,0,1-3.661,0,4.028,4.028,0,0,1-2.977-3.618,10.856,10.856,0,0,1-.081-1.492V34.029a9.107,9.107,0,0,1,.149-1.865c.622-2.841,3.176-3.785,5.507-3.512,2.884.329,4.227,1.908,4.233,4.83v6.067Zm-7.882.093v6.284a2.873,2.873,0,0,0,2.928,3.108,2.785,2.785,0,0,0,2.965-2.965c.05-4.308.037-8.621,0-12.929a2.648,2.648,0,0,0-2.113-2.7,2.868,2.868,0,0,0-3.785,3.008C277.19,35.521,277.2,37.591,277.2,39.661Z" transform="translate(-104.841 -11.163)" fill="#ec1c39"/>
      <path id="Path_546" data-name="Path 546" d="M340.341,41.1v9.554H338.42V29.364c.031,0,.062-.087.1-.087a52.833,52.833,0,0,1,5.346.068,3.849,3.849,0,0,1,3.307,3.145,9.647,9.647,0,0,1,.106,4.668,4.341,4.341,0,0,1-2.716,3.5L347.706,50.7a12.861,12.861,0,0,1-1.716,0c-.18,0-.4-.348-.466-.572-.87-2.747-1.728-5.489-2.549-8.248-.174-.566-.4-.839-1.026-.771A13.676,13.676,0,0,1,340.341,41.1Zm.044-10.144V39.57h2.244a2.449,2.449,0,0,0,2.486-1.7,7.422,7.422,0,0,0,0-5.228,2.349,2.349,0,0,0-1.983-1.691C342.224,30.893,341.323,30.955,340.384,30.955Z" transform="translate(-128.976 -11.403)" fill="#ec1c39"/>
      <path id="Path_547" data-name="Path 547" d="M191.51,50.679V30.061c0-.678.162-.914.87-.883,1.523.062,3.052,0,4.569.068a3.924,3.924,0,0,1,4,4.2q.037,6.322,0,12.649a4.227,4.227,0,0,1-4.538,4.581C194.8,50.7,193.213,50.679,191.51,50.679Zm1.952-1.691h2.573a2.7,2.7,0,0,0,2.915-2.772c.043-4.233.031-8.472,0-12.705a2.3,2.3,0,0,0-1.734-2.424,30.7,30.7,0,0,0-3.729-.3Z" transform="translate(-72.961 -11.378)" fill="#ec1c39"/>
      <path id="Path_548" data-name="Path 548" d="M256.028,50.675H254.12c0-.28-.05-.535-.05-.783V30.082c0-.273.106-.777.218-.8a6.129,6.129,0,0,1,1.616.044c.068,0,.112.423.112.653v8.69h5.762V29.23h1.61c.118,0,.267.236.3.385a2.985,2.985,0,0,1,0,.709V49.6c0,1.287.075,1.113-1.106,1.125a6.29,6.29,0,0,1-.789-.037v-9.4c0-.553-.143-.752-.721-.74-1.473.037-2.953.031-4.432,0-.547,0-.678.2-.671.709v8.509Z" transform="translate(-96.795 -11.399)" fill="#ec1c39"/>
      <path id="Path_549" data-name="Path 549" d="M305.607,35.068h-1.684v-2a2.623,2.623,0,0,0-2.673-2.822,2.7,2.7,0,0,0-3.108,2.629c-.093,2.144-.062,4.289-.068,6.433v5.936a10.946,10.946,0,0,0,.068,1.43,2.7,2.7,0,0,0,2.872,2.343c1.629,0,2.729-.74,2.822-2.219.124-1.964.031-3.941.031-6-.789,0-1.548-.037-2.3,0-.622.037-.622-.354-.622-.777s-.13-.883.591-.864c1.355.037,2.71,0,4.015,0,.075.1.124.137.124.174,0,2.548.087,5.1,0,7.645a3.956,3.956,0,0,1-3.829,3.667,7.633,7.633,0,0,1-1.921-.044,4.093,4.093,0,0,1-3.8-4.419c-.044-4.314,0-8.628,0-12.948A4.2,4.2,0,0,1,298.54,29.1a5.364,5.364,0,0,1,5.451.292,3.332,3.332,0,0,1,1.579,2.6C305.67,33,305.607,34,305.607,35.068Z" transform="translate(-112.811 -11.119)" fill="#ec1c39"/>
      <path id="Path_550" data-name="Path 550" d="M326.834,50.61h-1.865c-.342-1.753-.7-3.493-1.026-5.24-.292-1.573-.28-1.573-1.865-1.573-.814,0-1.629.056-2.43,0s-.932.255-1.044.9c-.292,1.709-.684,3.4-.957,5.116-.106.69-.348.97-1.044.858a6.527,6.527,0,0,0-.932,0c.336-1.7.659-3.325.982-4.973,1.088-5.339,2.182-10.673,3.238-16.012.106-.528.3-.622.789-.622,1.952,0,1.958,0,2.319,1.821q1.939,9.69,3.866,19.375a2.181,2.181,0,0,1-.031.354ZM323.3,42.163l-1.989-10.654H321.1c-.671,3.531-1.336,7.067-2.014,10.642Z" transform="translate(-120.367 -11.334)" fill="#ec1c39"/>
      <path id="Path_551" data-name="Path 551" d="M214.3,38.588h4.73v1.684H214.3v8.739h5.905v1.653H212.34V29.32h7.869v1.542H214.3Z" transform="translate(-80.893 -11.432)" fill="#ec1c39"/>
      <path id="Path_552" data-name="Path 552" d="M112.7,49.84V31h3.276c.112,0,.261.18.311.3a1.647,1.647,0,0,1,0,.5V49.02c0,.665-.193.87-.845.833C114.577,49.8,113.676,49.84,112.7,49.84Z" transform="translate(-42.929 -12.061)" fill="#ec1c39"/>
      <path id="Path_553" data-name="Path 553" d="M232.014,48.994h5.893c.068.1.087.112.093.137.261,1.448.18,1.548-1.243,1.548H230.9c-.566,0-.8-.112-.8-.74V29.918c0-.622.218-.771.789-.758,1.131,0,1.131,0,1.131,1.113v18.71Z" transform="translate(-87.659 -11.371)" fill="#ec1c39"/>
    </g>
  </g>
</svg>
