<?xml version="1.0" standalone="no"?>
<!DOCTYPE svg PUBLIC "-//W3C//DTD SVG 20010904//EN"
 "http://www.w3.org/TR/2001/REC-SVG-20010904/DTD/svg10.dtd">
<svg version="1.0" xmlns="http://www.w3.org/2000/svg"
 width="329.000000pt" height="141.000000pt" viewBox="0 0 329.000000 141.000000"
 preserveAspectRatio="xMidYMid meet">

<g transform="translate(0.000000,141.000000) scale(0.100000,-0.100000)"
fill="#000000" stroke="none">
<path d="M3218 1405 c-3 -3 -171 -10 -374 -15 -257 -7 -414 -15 -519 -29 -82
-10 -247 -24 -365 -30 -118 -7 -345 -19 -505 -29 -295 -17 -1115 -22 -1322 -7
-80 5 -93 4 -93 -9 0 -9 15 -19 39 -26 52 -14 51 -44 -2 -48 -29 -3 -37 -8
-37 -23 0 -10 7 -19 15 -19 8 0 15 -4 15 -9 0 -5 10 -12 23 -14 13 -3 8 -5
-15 -6 -26 -1 -38 -6 -38 -15 0 -16 26 -46 40 -46 19 0 15 -45 -5 -55 -15 -8
-21 -23 -23 -57 -2 -39 0 -47 18 -53 26 -8 26 -36 0 -58 -24 -20 -27 -67 -5
-67 8 0 15 -4 15 -10 0 -5 -7 -10 -15 -10 -23 0 -18 -17 8 -25 19 -7 17 -9
-15 -12 -34 -4 -38 -7 -38 -33 0 -15 6 -31 13 -33 7 -3 4 -6 -7 -6 -14 -1 -16
-4 -7 -14 6 -8 8 -17 3 -21 -4 -4 -8 -36 -9 -71 l-2 -63 37 -10 37 -10 -34 -1
c-39 -1 -32 -16 9 -24 18 -3 15 -5 -12 -6 l-37 -1 2 -103 2 -102 35 -6 35 -6
-37 -2 c-44 -1 -50 -14 -46 -106 l3 -60 50 -6 50 -6 -55 -2 c-48 -1 -52 -3
-35 -14 15 -9 123 -13 405 -14 212 -1 439 -4 505 -7 75 -3 109 -1 90 4 -18 5
38 7 139 4 92 -3 166 -2 163 3 -3 4 59 9 136 11 78 2 144 6 147 10 3 4 92 8
198 10 106 2 243 7 305 13 62 5 130 9 152 10 33 0 36 2 20 9 -14 7 -3 8 38 4
32 -3 57 -1 57 4 0 5 21 7 46 4 26 -2 44 0 41 4 -3 5 18 9 46 10 219 4 658 22
664 27 3 4 -77 5 -178 2 -101 -3 -274 -7 -384 -10 -110 -2 -254 -11 -320 -19
-66 -8 -185 -17 -265 -20 l-145 -5 170 14 c94 7 214 20 268 29 123 19 257 26
549 29 133 2 232 7 238 13 10 10 -61 10 -88 -1 -16 -6 -495 6 -488 12 7 7 121
15 346 23 339 11 337 11 315 18 -11 4 -21 17 -23 29 -3 18 2 23 20 23 l23 0
-26 23 c-14 12 -25 30 -23 40 1 10 -4 17 -13 17 -21 0 23 40 46 41 10 1 9 3
-5 7 -33 10 -14 52 23 52 15 0 34 4 42 9 8 5 -4 7 -33 4 -37 -5 -46 -3 -44 8
4 18 70 31 80 15 19 -28 12 345 -7 411 -12 42 -14 80 -8 190 11 218 3 340 -19
318z m-3 -45 c4 -6 -7 -10 -27 -10 -25 0 -29 -3 -18 -10 13 -8 13 -10 -1 -10
-9 0 -19 3 -23 8 -4 4 -105 5 -224 3 -120 -2 -215 -1 -212 2 3 3 97 8 210 12
113 4 207 9 209 11 9 8 80 4 86 -6z m-517 -15 c-3 -3 -56 -10 -119 -15 -63 -6
-161 -17 -218 -26 -120 -17 -387 -35 -511 -34 -47 0 -204 -9 -350 -20 -208
-16 -359 -20 -699 -20 -239 0 -436 2 -439 5 -6 6 319 9 603 6 105 -1 253 3
330 8 77 5 232 15 345 21 403 21 547 31 665 46 207 25 404 40 393 29z m295
-22 c-7 -2 -19 -2 -25 0 -7 3 -2 5 12 5 14 0 19 -2 13 -5z m-835 -60 c-10 -2
-28 -2 -40 0 -13 2 -5 4 17 4 22 1 32 -1 23 -4z m-1819 -29 c2 -2 -23 -4 -57
-4 -35 0 -62 4 -62 10 0 9 108 3 119 -6z m-243 -137 c4 -4 0 -7 -9 -7 -9 0
-18 4 -21 9 -7 10 20 9 30 -2z m487 -234 c-7 -2 -21 -2 -30 0 -10 3 -4 5 12 5
17 0 24 -2 18 -5z m2580 -320 c-7 -2 -19 -2 -25 0 -7 3 -2 5 12 5 14 0 19 -2
13 -5z m72 -13 c-11 -5 -31 -9 -45 -9 -23 0 -23 1 -5 9 11 5 31 9 45 9 23 0
23 -1 5 -9z m-1028 -36 c-3 -3 -12 -4 -19 -1 -8 3 -5 6 6 6 11 1 17 -2 13 -5z
m-900 -80 c-3 -3 -12 -4 -19 -1 -8 3 -5 6 6 6 11 1 17 -2 13 -5z m1466 -71
c-13 -2 -35 -2 -50 0 -16 2 -5 4 22 4 28 0 40 -2 28 -4z m80 0 c-7 -2 -21 -2
-30 0 -10 3 -4 5 12 5 17 0 24 -2 18 -5z m90 0 c-13 -2 -33 -2 -45 0 -13 2 -3
4 22 4 25 0 35 -2 23 -4z m-108 -23 c-3 -5 -39 -9 -78 -8 l-72 2 75 6 c41 4
76 7 78 8 2 1 0 -2 -3 -8z m175 1 c23 -7 22 -8 -12 -12 -27 -4 -38 -1 -38 8 0
14 11 15 50 4z m113 2 c-13 -2 -35 -2 -50 0 -16 2 -5 4 22 4 28 0 40 -2 28 -4z
m-506 -9 c-3 -3 -12 -4 -19 -1 -8 3 -5 6 6 6 11 1 17 -2 13 -5z m286 -11 c-7
-2 -19 -2 -25 0 -7 3 -2 5 12 5 14 0 19 -2 13 -5z m-1015 -20 c-16 -2 -40 -2
-55 0 -16 2 -3 4 27 4 30 0 43 -2 28 -4z m-841 -40 c-20 -2 -52 -2 -70 0 -17
2 0 4 38 4 39 0 53 -2 32 -4z m1296 -80 c-7 -2 -21 -2 -30 0 -10 3 -4 5 12 5
17 0 24 -2 18 -5z m140 0 c-7 -2 -19 -2 -25 0 -7 3 -2 5 12 5 14 0 19 -2 13
-5z m-363 -23 c0 -5 1 -13 3 -17 1 -3 -20 -5 -48 -4 -27 1 -58 2 -68 2 -9 0
-15 4 -12 9 3 5 21 7 40 5 19 -3 37 0 40 5 8 13 45 13 45 0z m-958 -58 c4 -4
-1 -8 -11 -9 -11 -1 -25 5 -31 12 -10 12 -8 13 11 10 12 -3 26 -8 31 -13z
m-252 -3 c0 -9 -17 -11 -75 -11 -50 0 -60 2 -48 10 17 10 123 11 123 1z m110
1 c0 -5 -7 -10 -16 -10 -8 0 -12 5 -9 10 3 6 10 10 16 10 5 0 9 -4 9 -10z
m-406 -8 c2 -4 -11 -7 -30 -7 -19 0 -34 3 -34 8 0 9 57 9 64 -1z m1140 -1 c3
-5 -13 -6 -37 -4 -23 3 -136 -3 -252 -12 -252 -20 -903 -29 -1165 -16 -159 7
-117 9 290 8 469 0 749 7 905 22 114 12 253 13 259 2z m-167 -27 c-3 -3 -12
-4 -19 -1 -8 3 -5 6 6 6 11 1 17 -2 13 -5z m-309 -21 c-16 -2 -40 -2 -55 0
-16 2 -3 4 27 4 30 0 43 -2 28 -4z"/>
<path d="M3208 423 c6 -2 18 -2 25 0 6 3 1 5 -13 5 -14 0 -19 -2 -12 -5z"/>
<path d="M3230 331 c0 -5 9 -7 20 -4 11 3 20 7 20 9 0 2 -9 4 -20 4 -11 0 -20
-4 -20 -9z"/>
<path d="M3133 163 c9 -2 23 -2 30 0 6 3 -1 5 -18 5 -16 0 -22 -2 -12 -5z"/>
<path d="M3265 160 c4 -6 -6 -10 -21 -10 -20 0 -25 -3 -17 -11 8 -8 17 -8 32
0 22 12 28 31 10 31 -5 0 -7 -4 -4 -10z"/>
<path d="M468 3 c46 -2 118 -2 160 0 42 1 5 3 -83 3 -88 0 -123 -2 -77 -3z"/>
</g>
</svg>
