<?xml version="1.0" encoding="utf-8"?>
<!-- Generator: Adobe Illustrator 23.0.3, SVG Export Plug-In . SVG Version: 6.00 Build 0)  -->
<svg version="1.1" id="Capa_1" xmlns="http://www.w3.org/2000/svg" xmlns:xlink="http://www.w3.org/1999/xlink" x="0px" y="0px"
	 viewBox="0 0 35 25" style="enable-background:new 0 0 35 25;" xml:space="preserve">
<style type="text/css">
	.st0{fill:#575757;}
</style>
<g id="right" transform="translate(0 -85.333)">
	<g id="Group_32" transform="translate(0 85.333)">
		<path id="Path_30" class="st0" d="M1.7,12L11.8,1.8c0.3-0.3,0.7-0.2,1,0c0.2,0.3,0.2,0.7,0,0.9l-9,9h29.5c0.4,0,0.7,0.3,0.7,0.7
			s-0.3,0.7-0.7,0.7H3.8l9,9c0.3,0.3,0.3,0.7,0,1c-0.3,0.3-0.7,0.3-1,0c0,0,0,0,0,0L1.7,12.9C1.4,12.7,1.4,12.2,1.7,12
			C1.7,12,1.7,12,1.7,12z"/>
	</g>
</g>
</svg>
