<?xml version="1.0" encoding="utf-8"?>
<!-- Generator: Adobe Illustrator 23.0.3, SVG Export Plug-In . SVG Version: 6.00 Build 0)  -->
<svg version="1.1" id="Capa_1" xmlns="http://www.w3.org/2000/svg" xmlns:xlink="http://www.w3.org/1999/xlink" x="0px" y="0px"
	 viewBox="0 0 35 23" style="enable-background:new 0 0 35 23;" xml:space="preserve">
<style type="text/css">
	.st0{fill:#C02D10;}
</style>
<g id="right" transform="translate(0 -85.333)">
	<g id="Group_32" transform="translate(0 85.333)">
		<path id="Path_30" class="st0" d="M33.8,11L23.6,0.8c-0.3-0.3-0.7-0.2-1,0c-0.2,0.3-0.2,0.7,0,0.9l9,9H2.1c-0.4,0-0.7,0.3-0.7,0.7
			s0.3,0.7,0.7,0.7h29.5l-9,9c-0.3,0.3-0.3,0.7,0,1c0.3,0.3,0.7,0.3,1,0c0,0,0,0,0,0l10.2-10.2C34.1,11.7,34.1,11.2,33.8,11
			C33.8,11,33.8,11,33.8,11z"/>
	</g>
</g>
</svg>
